<svg xmlns="http://www.w3.org/2000/svg"  viewBox="0 0 48 48" width="96px" height="96px"><linearGradient id="4VWS6u7YnbqFQfq9jue69a" x1="20.678" x2="24.754" y1="3.274" y2="26.393" gradientUnits="userSpaceOnUse"><stop offset="0" stop-color="#4bdf8d"/><stop offset=".857" stop-color="#42ca81"/></linearGradient><path fill="url(#4VWS6u7YnbqFQfq9jue69a)" d="M4,23C4,11.954,12.954,3,24,3s20,8.954,20,20l-20,2L4,23z"/><linearGradient id="4VWS6u7YnbqFQfq9jue69b" x1="23.246" x2="27.322" y1="19.607" y2="42.726" gradientUnits="userSpaceOnUse"><stop offset="0" stop-color="#54f093"/><stop offset=".998" stop-color="#46dc84"/></linearGradient><path fill="url(#4VWS6u7YnbqFQfq9jue69b)" d="M44,23c0,11.046-8.954,20-20,20 S4,34.046,4,23H44z"/><linearGradient id="4VWS6u7YnbqFQfq9jue69c" x1="23.305" x2="24.695" y1="15.56" y2="23.44" gradientUnits="userSpaceOnUse"><stop offset=".179" stop-color="#3aad6d"/><stop offset=".857" stop-color="#3bb574"/></linearGradient><circle cx="24" cy="19.5" r="4" fill="url(#4VWS6u7YnbqFQfq9jue69c)"/><g><path d="M24,16c-1.93,0-3.5,1.57-3.5,3.5S22.07,23,24,23s3.5-1.57,3.5-3.5S25.93,16,24,16z M24,21 c-0.83,0-1.5-0.67-1.5-1.5c0-0.83,0.67-1.5,1.5-1.5s1.5,0.67,1.5,1.5C25.5,20.33,24.83,21,24,21z M26.12,25.47l-1.76,1.76 c-0.2,0.19-0.52,0.19-0.72,0l-1.76-1.76l-4.4,7.66l0.91,0.48C20.12,34.53,22.01,35,24,35c1.95,0,3.89-0.48,5.61-1.39l0.91-0.49 L26.12,25.47z M20.27,32.28l2.04-3.56c0.96,0.87,2.42,0.87,3.38,0l2.04,3.56C25.34,33.24,22.6,33.22,20.27,32.28z M31.51,34.84 l-0.86,0.47C28.62,36.42,26.31,37,24,37c-2.36,0-4.6-0.57-6.66-1.68l-0.86-0.47l-2.97,5.17c0.14,0.1,0.28,0.18,0.43,0.25 l2.73-4.75l0.43,0.23c2.13,1.16,4.45,1.75,6.9,1.75c2.4,0,4.78-0.61,6.89-1.75l0.43-0.24l2.74,4.77c0.15-0.08,0.29-0.16,0.43-0.26 L31.51,34.84z M26.12,25.47l-1.76,1.76c-0.2,0.19-0.52,0.19-0.72,0l-1.76-1.76l-4.4,7.66l0.91,0.48C20.12,34.53,22.01,35,24,35 c1.95,0,3.89-0.48,5.61-1.39l0.91-0.49L26.12,25.47z M20.27,32.28l2.04-3.56c0.96,0.87,2.42,0.87,3.38,0l2.04,3.56 C25.34,33.24,22.6,33.22,20.27,32.28z M24,16c-1.93,0-3.5,1.57-3.5,3.5S22.07,23,24,23s3.5-1.57,3.5-3.5S25.93,16,24,16z M24,21 c-0.83,0-1.5-0.67-1.5-1.5c0-0.83,0.67-1.5,1.5-1.5s1.5,0.67,1.5,1.5C25.5,20.33,24.83,21,24,21z M24,16c-1.93,0-3.5,1.57-3.5,3.5 S22.07,23,24,23s3.5-1.57,3.5-3.5S25.93,16,24,16z M24,21c-0.83,0-1.5-0.67-1.5-1.5c0-0.83,0.67-1.5,1.5-1.5s1.5,0.67,1.5,1.5 C25.5,20.33,24.83,21,24,21z M26.12,25.47l-1.76,1.76c-0.2,0.19-0.52,0.19-0.72,0l-1.76-1.76l-4.4,7.66l0.91,0.48 C20.12,34.53,22.01,35,24,35c1.95,0,3.89-0.48,5.61-1.39l0.91-0.49L26.12,25.47z M20.27,32.28l2.04-3.56 c0.96,0.87,2.42,0.87,3.38,0l2.04,3.56C25.34,33.24,22.6,33.22,20.27,32.28z M26.12,25.47l-1.76,1.76c-0.2,0.19-0.52,0.19-0.72,0 l-1.76-1.76l-4.4,7.66l0.91,0.48C20.12,34.53,22.01,35,24,35c1.95,0,3.89-0.48,5.61-1.39l0.91-0.49L26.12,25.47z M20.27,32.28 l2.04-3.56c0.96,0.87,2.42,0.87,3.38,0l2.04,3.56C25.34,33.24,22.6,33.22,20.27,32.28z M24,16c-1.93,0-3.5,1.57-3.5,3.5 S22.07,23,24,23s3.5-1.57,3.5-3.5S25.93,16,24,16z M24,21c-0.83,0-1.5-0.67-1.5-1.5c0-0.83,0.67-1.5,1.5-1.5s1.5,0.67,1.5,1.5 C25.5,20.33,24.83,21,24,21z M24,16c-1.93,0-3.5,1.57-3.5,3.5S22.07,23,24,23s3.5-1.57,3.5-3.5S25.93,16,24,16z M24,21 c-0.83,0-1.5-0.67-1.5-1.5c0-0.83,0.67-1.5,1.5-1.5s1.5,0.67,1.5,1.5C25.5,20.33,24.83,21,24,21z M26.12,25.47l-1.76,1.76 c-0.2,0.19-0.52,0.19-0.72,0l-1.76-1.76l-4.4,7.66l0.91,0.48C20.12,34.53,22.01,35,24,35c1.95,0,3.89-0.48,5.61-1.39l0.91-0.49 L26.12,25.47z M20.27,32.28l2.04-3.56c0.96,0.87,2.42,0.87,3.38,0l2.04,3.56C25.34,33.24,22.6,33.22,20.27,32.28z M26.12,25.47 l-1.76,1.76c-0.2,0.19-0.52,0.19-0.72,0l-1.76-1.76l-4.4,7.66l0.91,0.48C20.12,34.53,22.01,35,24,35c1.95,0,3.89-0.48,5.61-1.39 l0.91-0.49L26.12,25.47z M20.27,32.28l2.04-3.56c0.96,0.87,2.42,0.87,3.38,0l2.04,3.56C25.34,33.24,22.6,33.22,20.27,32.28z M24,16c-1.93,0-3.5,1.57-3.5,3.5S22.07,23,24,23s3.5-1.57,3.5-3.5S25.93,16,24,16z M24,21c-0.83,0-1.5-0.67-1.5-1.5 c0-0.83,0.67-1.5,1.5-1.5s1.5,0.67,1.5,1.5C25.5,20.33,24.83,21,24,21z M39.99,23.55c0-0.19-0.03-0.38-0.1-0.55 c-0.06-0.2-0.17-0.39-0.32-0.54C39.29,22.17,38.89,22,38.48,22h-3c-0.65,0-1.19,0.41-1.4,1c-0.05,0.14-0.08,0.28-0.09,0.44 c-0.08,1.76-0.63,3.47-1.57,4.95l-2.34-4.06l0.48-0.48c0.23-0.23,0.38-0.53,0.42-0.85c0.01-0.07,0.02-0.14,0.02-0.21V14.5 c0-1.38-1.12-2.5-2.5-2.5H27v-1.5C27,9.67,26.33,9,25.5,9h-3C21.67,9,21,9.67,21,10.5V12h-1.5c-1.38,0-2.5,1.12-2.5,2.5v8.29 c0,0.07,0.01,0.14,0.02,0.21c0.04,0.32,0.19,0.62,0.42,0.85l0.48,0.48l-7.61,13.24c0.13,0.12,0.25,0.24,0.38,0.35 c0.25,0.23,0.51,0.44,0.77,0.65c0.13,0.11,0.26,0.21,0.39,0.31L20.41,24l-1-1L19,22.59V14.5c0-0.28,0.22-0.5,0.5-0.5H23v-3h2v3 h3.5c0.28,0,0.5,0.22,0.5,0.5v8.09L28.59,23l-1,1l4.55,7.92l0.92-1.06c1.67-1.92,2.69-4.34,2.9-6.86h2 c-0.24,3.46-1.75,6.67-4.27,9.09l-0.57,0.54l3.02,5.25c0.14-0.09,0.27-0.2,0.4-0.31c0.27-0.21,0.53-0.43,0.78-0.65 c0.12-0.12,0.25-0.23,0.37-0.35l-2.06-3.59C38.31,31.14,39.86,27.47,39.99,23.55z M30.65,35.31C28.62,36.42,26.31,37,24,37 c-2.36,0-4.6-0.57-6.66-1.68l-0.86-0.47l-2.97,5.17c0.14,0.1,0.28,0.18,0.43,0.25c0.29,0.18,0.58,0.35,0.88,0.49 c0.14,0.09,0.29,0.16,0.44,0.23l2-3.48C19.37,38.5,21.63,39,24,39c2.32,0,4.63-0.51,6.74-1.49l2,3.48 c0.15-0.07,0.3-0.15,0.45-0.23c0.3-0.15,0.59-0.31,0.87-0.48c0.15-0.08,0.29-0.16,0.43-0.26l-2.98-5.18L30.65,35.31z M26.12,25.47 l-1.76,1.76c-0.2,0.19-0.52,0.19-0.72,0l-1.76-1.76l-4.4,7.66l0.91,0.48C20.12,34.53,22.01,35,24,35c1.95,0,3.89-0.48,5.61-1.39 l0.91-0.49L26.12,25.47z M20.27,32.28l2.04-3.56c0.96,0.87,2.42,0.87,3.38,0l2.04,3.56C25.34,33.24,22.6,33.22,20.27,32.28z M24,16c-1.93,0-3.5,1.57-3.5,3.5S22.07,23,24,23s3.5-1.57,3.5-3.5S25.93,16,24,16z M24,21c-0.83,0-1.5-0.67-1.5-1.5 c0-0.83,0.67-1.5,1.5-1.5s1.5,0.67,1.5,1.5C25.5,20.33,24.83,21,24,21z M24,16c-1.93,0-3.5,1.57-3.5,3.5S22.07,23,24,23 s3.5-1.57,3.5-3.5S25.93,16,24,16z M24,21c-0.83,0-1.5-0.67-1.5-1.5c0-0.83,0.67-1.5,1.5-1.5s1.5,0.67,1.5,1.5 C25.5,20.33,24.83,21,24,21z M26.12,25.47l-1.76,1.76c-0.2,0.19-0.52,0.19-0.72,0l-1.76-1.76l-4.4,7.66l0.91,0.48 C20.12,34.53,22.01,35,24,35c1.95,0,3.89-0.48,5.61-1.39l0.91-0.49L26.12,25.47z M20.27,32.28l2.04-3.56 c0.96,0.87,2.42,0.87,3.38,0l2.04,3.56C25.34,33.24,22.6,33.22,20.27,32.28z M26.12,25.47l-1.76,1.76c-0.2,0.19-0.52,0.19-0.72,0 l-1.76-1.76l-4.4,7.66l0.91,0.48C20.12,34.53,22.01,35,24,35c1.95,0,3.89-0.48,5.61-1.39l0.91-0.49L26.12,25.47z M20.27,32.28 l2.04-3.56c0.96,0.87,2.42,0.87,3.38,0l2.04,3.56C25.34,33.24,22.6,33.22,20.27,32.28z M24,16c-1.93,0-3.5,1.57-3.5,3.5 S22.07,23,24,23s3.5-1.57,3.5-3.5S25.93,16,24,16z M24,21c-0.83,0-1.5-0.67-1.5-1.5c0-0.83,0.67-1.5,1.5-1.5s1.5,0.67,1.5,1.5 C25.5,20.33,24.83,21,24,21z M24,16c-1.93,0-3.5,1.57-3.5,3.5S22.07,23,24,23s3.5-1.57,3.5-3.5S25.93,16,24,16z M24,21 c-0.83,0-1.5-0.67-1.5-1.5c0-0.83,0.67-1.5,1.5-1.5s1.5,0.67,1.5,1.5C25.5,20.33,24.83,21,24,21z M26.12,25.47l-1.76,1.76 c-0.2,0.19-0.52,0.19-0.72,0l-1.76-1.76l-4.4,7.66l0.91,0.48C20.12,34.53,22.01,35,24,35c1.95,0,3.89-0.48,5.61-1.39l0.91-0.49 L26.12,25.47z M20.27,32.28l2.04-3.56c0.96,0.87,2.42,0.87,3.38,0l2.04,3.56C25.34,33.24,22.6,33.22,20.27,32.28z M26.12,25.47 l-1.76,1.76c-0.2,0.19-0.52,0.19-0.72,0l-1.76-1.76l-4.4,7.66l0.91,0.48C20.12,34.53,22.01,35,24,35c1.95,0,3.89-0.48,5.61-1.39 l0.91-0.49L26.12,25.47z M20.27,32.28l2.04-3.56c0.96,0.87,2.42,0.87,3.38,0l2.04,3.56C25.34,33.24,22.6,33.22,20.27,32.28z M24,16c-1.93,0-3.5,1.57-3.5,3.5S22.07,23,24,23s3.5-1.57,3.5-3.5S25.93,16,24,16z M24,21c-0.83,0-1.5-0.67-1.5-1.5 c0-0.83,0.67-1.5,1.5-1.5s1.5,0.67,1.5,1.5C25.5,20.33,24.83,21,24,21z M24,16c-1.93,0-3.5,1.57-3.5,3.5S22.07,23,24,23 s3.5-1.57,3.5-3.5S25.93,16,24,16z M24,21c-0.83,0-1.5-0.67-1.5-1.5c0-0.83,0.67-1.5,1.5-1.5s1.5,0.67,1.5,1.5 C25.5,20.33,24.83,21,24,21z M26.12,25.47l-1.76,1.76c-0.2,0.19-0.52,0.19-0.72,0l-1.76-1.76l-4.4,7.66l0.91,0.48 C20.12,34.53,22.01,35,24,35c1.95,0,3.89-0.48,5.61-1.39l0.91-0.49L26.12,25.47z M20.27,32.28l2.04-3.56 c0.96,0.87,2.42,0.87,3.38,0l2.04,3.56C25.34,33.24,22.6,33.22,20.27,32.28z M26.12,25.47l-1.76,1.76c-0.2,0.19-0.52,0.19-0.72,0 l-1.76-1.76l-4.4,7.66l0.91,0.48C20.12,34.53,22.01,35,24,35c1.95,0,3.89-0.48,5.61-1.39l0.91-0.49L26.12,25.47z M20.27,32.28 l2.04-3.56c0.96,0.87,2.42,0.87,3.38,0l2.04,3.56C25.34,33.24,22.6,33.22,20.27,32.28z M24,16c-1.93,0-3.5,1.57-3.5,3.5 S22.07,23,24,23s3.5-1.57,3.5-3.5S25.93,16,24,16z M24,21c-0.83,0-1.5-0.67-1.5-1.5c0-0.83,0.67-1.5,1.5-1.5s1.5,0.67,1.5,1.5 C25.5,20.33,24.83,21,24,21z" opacity=".05"/><path d="M24,16.5c-1.65,0-3,1.35-3,3c0,1.65,1.35,3,3,3s3-1.35,3-3C27,17.85,25.65,16.5,24,16.5z M24,21.5 c-1.1,0-2-0.9-2-2c0-1.1,0.9-2,2-2s2,0.9,2,2C26,20.6,25.1,21.5,24,21.5z M26.01,26.28l-1.3,1.3c-0.39,0.39-1.03,0.39-1.42,0 l-1.3-1.3l-3.82,6.65l0.45,0.24c1.66,0.88,3.47,1.33,5.38,1.33c1.87,0,3.73-0.46,5.37-1.34l0.46-0.24L26.01,26.28z M19.55,32.52 l2.65-4.61l0.38,0.38c0.78,0.78,2.06,0.78,2.84,0l0.38-0.38l2.64,4.6C25.65,33.82,22.3,33.81,19.55,32.52z M24,16.5 c-1.65,0-3,1.35-3,3c0,1.65,1.35,3,3,3s3-1.35,3-3C27,17.85,25.65,16.5,24,16.5z M24,21.5c-1.1,0-2-0.9-2-2c0-1.1,0.9-2,2-2 s2,0.9,2,2C26,20.6,25.1,21.5,24,21.5z M26.01,26.28l-1.3,1.3c-0.39,0.39-1.03,0.39-1.42,0l-1.3-1.3l-3.82,6.65l0.45,0.24 c1.66,0.88,3.47,1.33,5.38,1.33c1.87,0,3.73-0.46,5.37-1.34l0.46-0.24L26.01,26.28z M19.55,32.52l2.65-4.61l0.38,0.38 c0.78,0.78,2.06,0.78,2.84,0l0.38-0.38l2.64,4.6C25.65,33.82,22.3,33.81,19.55,32.52z M24,16.5c-1.65,0-3,1.35-3,3 c0,1.65,1.35,3,3,3s3-1.35,3-3C27,17.85,25.65,16.5,24,16.5z M24,21.5c-1.1,0-2-0.9-2-2c0-1.1,0.9-2,2-2s2,0.9,2,2 C26,20.6,25.1,21.5,24,21.5z M39.49,23.54c0.01-0.19-0.04-0.38-0.14-0.54c-0.04-0.07-0.08-0.13-0.14-0.19 c-0.19-0.2-0.46-0.31-0.73-0.31h-3c-0.36,0-0.69,0.2-0.85,0.5c-0.09,0.13-0.13,0.29-0.14,0.46c-0.09,2.12-0.84,4.17-2.11,5.86 l-2.92-5.07l0.75-0.75c0.13-0.14,0.23-0.31,0.27-0.5c0.01-0.07,0.02-0.14,0.02-0.21V14.5c0-1.1-0.9-2-2-2h-2v-2c0-0.55-0.45-1-1-1 h-3c-0.55,0-1,0.45-1,1v2h-2c-1.1,0-2,0.9-2,2v8.29c0,0.07,0.01,0.14,0.02,0.21c0.04,0.19,0.14,0.36,0.27,0.5l0.75,0.75 l-7.85,13.67c0.25,0.23,0.51,0.44,0.77,0.65l8.33-14.49l-1.29-1.29V14.5c0-0.55,0.45-1,1-1h3v-3h3v3h3c0.55,0,1,0.45,1,1v8.29 l-1.29,1.29l4.01,6.98l0.46-0.53c1.7-1.95,2.7-4.45,2.8-7.03h3.01c-0.13,3.78-1.71,7.32-4.45,9.95l-0.29,0.27l2.79,4.85 c0.27-0.21,0.53-0.43,0.78-0.65l-2.31-4.02C37.77,31.11,39.36,27.45,39.49,23.54z M24,16.5c-1.65,0-3,1.35-3,3c0,1.65,1.35,3,3,3 s3-1.35,3-3C27,17.85,25.65,16.5,24,16.5z M24,21.5c-1.1,0-2-0.9-2-2c0-1.1,0.9-2,2-2s2,0.9,2,2C26,20.6,25.1,21.5,24,21.5z M31.32,35.51l-0.43,0.24C28.78,36.89,26.4,37.5,24,37.5c-2.45,0-4.77-0.59-6.9-1.75l-0.43-0.23l-2.73,4.75 c0.29,0.18,0.58,0.35,0.88,0.49l2.24-3.9c2.16,1.09,4.49,1.64,6.94,1.64c2.4,0,4.79-0.57,6.94-1.65l2.25,3.91 c0.3-0.15,0.59-0.31,0.87-0.48L31.32,35.51z M26.01,26.28l-1.3,1.3c-0.39,0.39-1.03,0.39-1.42,0l-1.3-1.3l-3.82,6.65l0.45,0.24 c1.66,0.88,3.47,1.33,5.38,1.33c1.87,0,3.73-0.46,5.37-1.34l0.46-0.24L26.01,26.28z M19.55,32.52l2.65-4.61l0.38,0.38 c0.78,0.78,2.06,0.78,2.84,0l0.38-0.38l2.64,4.6C25.65,33.82,22.3,33.81,19.55,32.52z M24,16.5c-1.65,0-3,1.35-3,3 c0,1.65,1.35,3,3,3s3-1.35,3-3C27,17.85,25.65,16.5,24,16.5z M24,21.5c-1.1,0-2-0.9-2-2c0-1.1,0.9-2,2-2s2,0.9,2,2 C26,20.6,25.1,21.5,24,21.5z M26.01,26.28l-1.3,1.3c-0.39,0.39-1.03,0.39-1.42,0l-1.3-1.3l-3.82,6.65l0.45,0.24 c1.66,0.88,3.47,1.33,5.38,1.33c1.87,0,3.73-0.46,5.37-1.34l0.46-0.24L26.01,26.28z M19.55,32.52l2.65-4.61l0.38,0.38 c0.78,0.78,2.06,0.78,2.84,0l0.38-0.38l2.64,4.6C25.65,33.82,22.3,33.81,19.55,32.52z M24,16.5c-1.65,0-3,1.35-3,3 c0,1.65,1.35,3,3,3s3-1.35,3-3C27,17.85,25.65,16.5,24,16.5z M24,21.5c-1.1,0-2-0.9-2-2c0-1.1,0.9-2,2-2s2,0.9,2,2 C26,20.6,25.1,21.5,24,21.5z M24,16.5c-1.65,0-3,1.35-3,3c0,1.65,1.35,3,3,3s3-1.35,3-3C27,17.85,25.65,16.5,24,16.5z M24,21.5 c-1.1,0-2-0.9-2-2c0-1.1,0.9-2,2-2s2,0.9,2,2C26,20.6,25.1,21.5,24,21.5z M26.01,26.28l-1.3,1.3c-0.39,0.39-1.03,0.39-1.42,0 l-1.3-1.3l-3.82,6.65l0.45,0.24c1.66,0.88,3.47,1.33,5.38,1.33c1.87,0,3.73-0.46,5.37-1.34l0.46-0.24L26.01,26.28z M19.55,32.52 l2.65-4.61l0.38,0.38c0.78,0.78,2.06,0.78,2.84,0l0.38-0.38l2.64,4.6C25.65,33.82,22.3,33.81,19.55,32.52z M26.01,26.28l-1.3,1.3 c-0.39,0.39-1.03,0.39-1.42,0l-1.3-1.3l-3.82,6.65l0.45,0.24c1.66,0.88,3.47,1.33,5.38,1.33c1.87,0,3.73-0.46,5.37-1.34l0.46-0.24 L26.01,26.28z M19.55,32.52l2.65-4.61l0.38,0.38c0.78,0.78,2.06,0.78,2.84,0l0.38-0.38l2.64,4.6 C25.65,33.82,22.3,33.81,19.55,32.52z M24,16.5c-1.65,0-3,1.35-3,3c0,1.65,1.35,3,3,3s3-1.35,3-3C27,17.85,25.65,16.5,24,16.5z M24,21.5c-1.1,0-2-0.9-2-2c0-1.1,0.9-2,2-2s2,0.9,2,2C26,20.6,25.1,21.5,24,21.5z" opacity=".05"/><linearGradient id="4VWS6u7YnbqFQfq9jue69d" x1="145.793" x2="157.479" y1="44.127" y2="24.441" gradientTransform="matrix(-1 0 0 1 184 0)" gradientUnits="userSpaceOnUse"><stop offset="0" stop-color="#d8effe"/><stop offset=".178" stop-color="#d6edfd"/><stop offset=".278" stop-color="#cde7f8"/><stop offset=".358" stop-color="#c0ddef"/><stop offset=".428" stop-color="#accfe4"/><stop offset=".446" stop-color="#a6cbe0"/><stop offset=".675" stop-color="#bcd9eb"/><stop offset=".841" stop-color="#bad7ea"/><stop offset=".935" stop-color="#b2d2e6"/><stop offset="1" stop-color="#a6cbe0"/></linearGradient><path fill="url(#4VWS6u7YnbqFQfq9jue69d)" d="M27.734,22.253L39.22,42.228 c0.043,0.075,0.066,0.161,0.067,0.248l0.008,3.024c0,0.193-0.105,0.349-0.251,0.433c-0.146,0.084-0.334,0.096-0.501-0.001 l-2.61-1.528c-0.075-0.044-0.137-0.107-0.181-0.182L23.786,23.411L27.734,22.253z"/><linearGradient id="4VWS6u7YnbqFQfq9jue69e" x1="14.904" x2="38.991" y1="30.5" y2="30.5" gradientUnits="userSpaceOnUse"><stop offset="0" stop-color="#d7eefe"/><stop offset=".859" stop-color="#d7eefe"/><stop offset="1" stop-color="#d7eefe"/></linearGradient><path fill="url(#4VWS6u7YnbqFQfq9jue69e)" d="M24,38c-3.318,0-6.464-1.062-9.096-3.071 l2.428-3.18C19.26,33.222,21.566,34,24,34c5.903,0,10.735-4.674,10.989-10.515C35.001,23.215,35.214,23,35.483,23h2.999 c0.283,0,0.518,0.236,0.508,0.519C38.717,31.551,32.097,38,24,38z"/><linearGradient id="4VWS6u7YnbqFQfq9jue69f" x1="9.816" x2="21.501" y1="44.089" y2="24.403" gradientUnits="userSpaceOnUse"><stop offset="0" stop-color="#d8effe"/><stop offset=".517" stop-color="#d6eefd"/><stop offset=".703" stop-color="#cfe9f9"/><stop offset=".836" stop-color="#c4e0f2"/><stop offset=".942" stop-color="#b3d4e8"/><stop offset="1" stop-color="#a6cbe0"/></linearGradient><path fill="url(#4VWS6u7YnbqFQfq9jue69f)" d="M20.266,22.253L8.78,42.228 c-0.043,0.075-0.066,0.161-0.067,0.248L8.706,45.5c0,0.193,0.105,0.349,0.251,0.433c0.146,0.084,0.334,0.096,0.501-0.001 l2.61-1.528c0.075-0.044,0.137-0.107,0.181-0.182l11.966-20.811L20.266,22.253z"/><path fill="#37474f" d="M28.5,13H26v-2.5c0-0.276-0.224-0.5-0.5-0.5h-3c-0.276,0-0.5,0.224-0.5,0.5V13h-2.5 c-0.828,0-1.5,0.672-1.5,1.5v8.293c0,0.133,0.053,0.26,0.146,0.354l4.786,4.786c0.59,0.59,1.546,0.59,2.135,0l4.786-4.786 C29.947,23.053,30,22.926,30,22.793V14.5C30,13.672,29.328,13,28.5,13z M24,22c-1.381,0-2.5-1.119-2.5-2.5 c0-1.381,1.119-2.5,2.5-2.5s2.5,1.119,2.5,2.5C26.5,20.881,25.381,22,24,22z"/></g></svg>