<svg xmlns="http://www.w3.org/2000/svg"  viewBox="0 0 100 100" width="200px" height="200px"><circle cx="13" cy="29" r="2" fill="#78a0cf"/><circle cx="77" cy="13" r="1" fill="#f1bc19"/><circle cx="50" cy="50" r="37" fill="#cee1f4"/><circle cx="83" cy="15" r="4" fill="#f1bc19"/><circle cx="87" cy="24" r="2" fill="#78a0cf"/><circle cx="81" cy="76" r="2" fill="#fbcd59"/><circle cx="15" cy="63" r="4" fill="#fbcd59"/><circle cx="25" cy="87" r="2" fill="#78a0cf"/><circle cx="18.5" cy="53.5" r="2.5" fill="#fff"/><circle cx="21" cy="67" r="1" fill="#f1bc19"/><circle cx="80" cy="34" r="1" fill="#fff"/><path fill="#55a7f9" d="M69.822,28.793H36.157c-1.333,0-2.412,1.079-2.412,2.412v8.445h38.489v-8.445 C72.234,29.873,71.155,28.793,69.822,28.793z"/><path fill="#0553a4" d="M33.745,61.418v8.376c0,1.333,1.079,2.412,2.412,2.412h33.666c1.333,0,2.412-1.079,2.412-2.412 v-8.376H33.745z"/><path fill="#2d80d3" d="M33.745,39.65h38.489v10.856H33.745V39.65z"/><path fill="#0262b8" d="M33.745,50.506h38.489V61.42H33.745V50.506z"/><path fill="#472b29" d="M69.822,72.907H36.156c-1.716,0-3.111-1.396-3.111-3.112v-38.59c0-1.716,1.396-3.112,3.111-3.112 h33.666c1.716,0,3.112,1.396,3.112,3.112v38.59C72.935,71.511,71.538,72.907,69.822,72.907z M36.156,29.494 c-0.943,0-1.711,0.768-1.711,1.711v38.59c0,0.944,0.768,1.711,1.711,1.711h33.666c0.944,0,1.712-0.768,1.712-1.711v-38.59 c0-0.944-0.768-1.711-1.712-1.711H36.156z"/><path fill="#2d80d3" d="M45.372,62.559H26.078c-1.333,0-2.412-1.079-2.412-2.412V40.853c0-1.333,1.079-2.412,2.412-2.412 h19.295c1.333,0,2.412,1.079,2.412,2.412v19.295C47.784,61.48,46.705,62.559,45.372,62.559z"/><path fill="#472b29" d="M45.372,39.841c0.558,0,1.012,0.454,1.012,1.012v19.295c0,0.558-0.454,1.012-1.012,1.012H26.078 c-0.558,0-1.012-0.454-1.012-1.012V40.853c0-0.558,0.454-1.012,1.012-1.012H45.372 M45.372,38.441H26.078 c-1.333,0-2.412,1.079-2.412,2.412v19.295c0,1.333,1.079,2.412,2.412,2.412h19.295c1.333,0,2.412-1.079,2.412-2.412V40.853 C47.784,39.52,46.705,38.441,45.372,38.441L45.372,38.441z"/><path fill="#fff" d="M41.035,44.47l-1.864,8.76l-2.066-8.76h-2.637l-2.131,9.031l-1.921-9.031h-2.359l2.827,12.059h2.836 l2.066-9.272l2.067,9.272h2.715l2.827-12.059H41.035z"/><path fill="#472b29" d="M43.393,44.47L40.567,56.53h-2.715l-2.067-9.272L33.72,56.53h-2.836L28.057,44.47h2.359l1.921,9.031 l2.131-9.031h2.637l2.066,8.76l1.864-8.76H43.393 M43.393,43.97h-2.359c-0.236,0-0.44,0.165-0.489,0.396l-1.4,6.579l-1.554-6.59 c-0.053-0.226-0.255-0.385-0.487-0.385h-2.637c-0.232,0-0.433,0.159-0.487,0.385l-1.619,6.862l-1.457-6.851 c-0.049-0.231-0.253-0.396-0.489-0.396h-2.359c-0.153,0-0.297,0.07-0.392,0.189c-0.095,0.12-0.13,0.276-0.095,0.425l2.827,12.059 c0.053,0.226,0.255,0.386,0.487,0.386h2.836c0.234,0,0.437-0.163,0.488-0.391l1.578-7.082l1.579,7.082 c0.051,0.229,0.254,0.391,0.488,0.391h2.715c0.232,0,0.434-0.16,0.487-0.386l2.827-12.059c0.035-0.149,0-0.305-0.095-0.425 C43.69,44.04,43.546,43.97,43.393,43.97L43.393,43.97z"/><path fill="#472b29" d="M61.256,39.9H46.348c-0.138,0-0.25-0.112-0.25-0.25s0.112-0.25,0.25-0.25h14.908 c0.138,0,0.25,0.112,0.25,0.25S61.394,39.9,61.256,39.9z"/><path fill="#472b29" d="M65.46,39.9h-2.483c-0.138,0-0.25-0.112-0.25-0.25s0.112-0.25,0.25-0.25h2.483 c0.138,0,0.25,0.112,0.25,0.25S65.598,39.9,65.46,39.9z"/><path fill="#472b29" d="M72.012,39.9h-4.788c-0.138,0-0.25-0.112-0.25-0.25s0.112-0.25,0.25-0.25h4.788 c0.138,0,0.25,0.112,0.25,0.25S72.149,39.9,72.012,39.9z"/><rect width="24.827" height=".5" x="47.407" y="50.25" fill="#472b29"/><rect width="25.887" height=".5" x="46.348" y="61.1" fill="#472b29"/></svg>